<?xml version="1.0" encoding="UTF-8" standalone="no"?> <!-- Created with Vectornator for iOS (http://vectornator.io/) --><!DOCTYPE svg PUBLIC "-//W3C//DTD SVG 1.1//EN" "http://www.w3.org/Graphics/SVG/1.1/DTD/svg11.dtd">
<svg height="100%" style="fill-rule:nonzero;clip-rule:evenodd;stroke-linecap:round;stroke-linejoin:round;" xmlns:xlink="http://www.w3.org/1999/xlink" xmlns="http://www.w3.org/2000/svg" xml:space="preserve" width="100%" xmlns:vectornator="http://vectornator.io" version="1.1" viewBox="0 0 170.1 18.4275">
<metadata>
<vectornator:setting key="DimensionsVisible" value="1"/>
<vectornator:setting key="PencilOnly" value="0"/>
<vectornator:setting key="SnapToPoints" value="0"/>
<vectornator:setting key="OutlineMode" value="0"/>
<vectornator:setting key="CMYKEnabledKey" value="0"/>
<vectornator:setting key="RulersVisible" value="1"/>
<vectornator:setting key="SnapToEdges" value="0"/>
<vectornator:setting key="GuidesVisible" value="1"/>
<vectornator:setting key="DisplayWhiteBackground" value="0"/>
<vectornator:setting key="doHistoryDisabled" value="0"/>
<vectornator:setting key="SnapToGuides" value="1"/>
<vectornator:setting key="TimeLapseWatermarkDisabled" value="0"/>
<vectornator:setting key="Units" value="Millimeters"/>
<vectornator:setting key="DynamicGuides" value="0"/>
<vectornator:setting key="IsolateActiveLayer" value="0"/>
<vectornator:setting key="SnapToGrid" value="0"/>
</metadata>
<defs/>
<g id="Layer 1" vectornator:layerName="Layer 1">
<g opacity="1">
<path d="M3.85699+12.5835L3.85699+7.12894L5.67517+7.12894L5.67517+12.5835L3.85699+12.5835ZM11.1297+14.4017L5.67517+14.4017L5.67517+12.5835L9.31153+12.5835L9.31153+7.12894L5.67517+7.12894L5.67517+5.31076L9.31153+5.31076L9.31153+1.6744L11.1297+1.6744L11.1297+14.4017Z" opacity="1" fill="#000000"/>
<path d="M15.9479+12.5835L15.9479+7.12894L17.7661+7.12894L17.7661+8.94712L21.4024+8.94712L21.4024+7.12894L23.2206+7.12894L23.2206+10.7653L17.7661+10.7653L17.7661+12.5835L15.9479+12.5835ZM17.7661+12.5835L23.2206+12.5835L23.2206+14.4017L17.7661+14.4017L17.7661+12.5835ZM17.7661+7.12894L17.7661+5.31076L21.4024+5.31076L21.4024+7.12894L17.7661+7.12894Z" opacity="1" fill="#000000"/>
<path d="M28.0388+10.7653L28.0388+5.31076L29.857+5.31076L29.857+10.7653L28.0388+10.7653ZM35.3115+10.7653L33.4934+10.7653L33.4934+5.31076L35.3115+5.31076L35.3115+10.7653ZM29.857+10.7653L33.4934+10.7653L33.4934+14.4017L29.857+14.4017L29.857+10.7653Z" opacity="1" fill="#000000"/>
<path d="M40.1297+12.5835L40.1297+7.12894L41.9479+7.12894L41.9479+12.5835L40.1297+12.5835ZM47.4024+14.4017L41.9479+14.4017L41.9479+12.5835L45.5843+12.5835L45.5843+7.12894L41.9479+7.12894L41.9479+5.31076L45.5843+5.31076L45.5843+1.6744L47.4024+1.6744L47.4024+14.4017Z" opacity="1" fill="#000000"/>
<path d="M52.2206+12.5835L52.2206+7.12894L54.0388+7.12894L54.0388+8.94712L57.6752+8.94712L57.6752+7.12894L59.4934+7.12894L59.4934+10.7653L54.0388+10.7653L54.0388+12.5835L52.2206+12.5835ZM54.0388+12.5835L59.4934+12.5835L59.4934+14.4017L54.0388+14.4017L54.0388+12.5835ZM54.0388+7.12894L54.0388+5.31076L57.6752+5.31076L57.6752+7.12894L54.0388+7.12894Z" opacity="1" fill="#000000"/>
<path d="M64.3115+12.5835L64.3115+7.12894L66.1297+7.12894L66.1297+12.5835L64.3115+12.5835ZM66.1297+12.5835L69.7661+12.5835L69.7661+14.4017L66.1297+14.4017L66.1297+12.5835ZM66.1297+7.12894L66.1297+5.31076L69.7661+5.31076L69.7661+7.12894L66.1297+7.12894ZM69.7661+12.5835L69.7661+10.7653L71.5843+10.7653L71.5843+12.5835L69.7661+12.5835ZM69.7661+7.12894L71.5843+7.12894L71.5843+8.94712L69.7661+8.94712L69.7661+7.12894Z" opacity="1" fill="#000000"/>
<path d="M76.4024+14.4017L76.4024+1.6744L78.2206+1.6744L78.2206+8.94712L80.0388+8.94712L80.0388+10.7653L78.2206+10.7653L78.2206+14.4017L76.4024+14.4017ZM80.0388+10.7653L81.857+10.7653L81.857+12.5835L80.0388+12.5835L80.0388+10.7653ZM80.0388+8.94712L80.0388+7.12894L81.857+7.12894L81.857+8.94712L80.0388+8.94712ZM81.857+12.5835L83.6752+12.5835L83.6752+14.4017L81.857+14.4017L81.857+12.5835ZM81.857+7.12894L81.857+5.31076L83.6752+5.31076L83.6752+7.12894L81.857+7.12894Z" opacity="1" fill="#000000"/>
</g>
</g>
</svg>
